<?xml version="1.0" encoding="UTF-8"?>
<!-- Created with Inkscape (http://www.inkscape.org/) -->
<svg width="100.26mm" height="8.3341mm" version="1.1" viewBox="0 0 100.26 8.3341" xmlns="http://www.w3.org/2000/svg">
 <g fill="none" stroke="#fff" stroke-width=".5" aria-label="NILS HINDERMANN">
  <path d="m2.2292 1.1698 2.9507 4.4648v-4.5062q0-0.43925 0.18603-0.65629 0.1912-0.22221 0.5116-0.22221 0.33073 0 0.52193 0.22221 0.1912 0.21704 0.1912 0.65629v5.9583q0 0.99735-0.82682 0.99735-0.20671 0-0.37207-0.062012-0.16536-0.056843-0.31006-0.18603-0.14469-0.12919-0.26872-0.29972-0.12402-0.1757-0.24805-0.35657l-2.8784-4.4132v4.439q0 0.43408-0.20154 0.65629-0.20154 0.22221-0.51676 0.22221-0.32556 0-0.52193-0.22221-0.19637-0.22738-0.19637-0.65629v-5.8446q0-0.37207 0.082682-0.58394 0.098185-0.23254 0.32556-0.37724 0.22738-0.14986 0.49092-0.14986 0.2067 0 0.3514 0.067179 0.14986 0.067179 0.25838 0.18087 0.11369 0.11369 0.22738 0.29455 0.11886 0.18087 0.24288 0.37724z"/>
  <path d="m8.3322 7.1488v-5.9686q0-0.46509 0.21187-0.69763 0.21187-0.23254 0.54777-0.23254 0.34623 0 0.5581 0.23254 0.21704 0.22738 0.21704 0.69763v5.9686q0 0.47025-0.21704 0.7028-0.21187 0.23254-0.5581 0.23254-0.33073 0-0.54777-0.23254-0.21187-0.23771-0.21187-0.7028z"/>
  <path d="m13.086 1.1802v5.5139h3.1109q0.37207 0 0.56844 0.18087 0.20154 0.18087 0.20154 0.45475 0 0.27905-0.19637 0.45475-0.19637 0.17053-0.57361 0.17053h-3.7052q-0.50126 0-0.72347-0.22221-0.21704-0.22221-0.21704-0.7183v-5.8343q0-0.46509 0.2067-0.69763 0.21187-0.23254 0.55294-0.23254 0.34623 0 0.5581 0.23254 0.21704 0.22738 0.21704 0.69763z"/>
  <path d="m23.329 5.6812q0 0.68729-0.35657 1.2351-0.3514 0.54777-1.0335 0.85783t-1.6175 0.31006q-1.1214 0-1.85-0.42375-0.51676-0.30489-0.84232-0.81132-0.32039-0.5116-0.32039-0.99218 0-0.27905 0.1912-0.47542 0.19637-0.20154 0.49609-0.20154 0.24288 0 0.40824 0.15503 0.17053 0.15503 0.28939 0.45992 0.14469 0.36173 0.31006 0.60461 0.17053 0.24288 0.47542 0.40307 0.30489 0.15503 0.80098 0.15503 0.68213 0 1.1059-0.31523 0.42891-0.32039 0.42891-0.79581 0-0.37724-0.23254-0.60978-0.22738-0.23771-0.59428-0.36173-0.36173-0.12402-0.97151-0.26355-0.81648-0.1912-1.3694-0.44442-0.54777-0.25838-0.87333-0.69763-0.32039-0.44442-0.32039-1.1007 0-0.62528 0.34106-1.111 0.34106-0.48576 0.98702-0.74414 0.64595-0.26355 1.5193-0.26355 0.69763 0 1.2041 0.1757 0.5116 0.17053 0.84749 0.45992 0.3359 0.28422 0.49092 0.59944t0.15503 0.61495q0 0.27388-0.19637 0.49609-0.1912 0.21704-0.48059 0.21704-0.26355 0-0.40308-0.12919-0.13436-0.13436-0.29456-0.43408-0.2067-0.42891-0.49609-0.66662-0.28939-0.24288-0.93017-0.24288-0.59428 0-0.96118 0.26355-0.36173 0.25838-0.36173 0.62528 0 0.22738 0.12402 0.39274t0.34106 0.28422 0.43925 0.18603q0.22221 0.067179 0.7338 0.19637 0.64079 0.14986 1.1575 0.33073 0.52193 0.18087 0.88366 0.43925 0.3669 0.25838 0.56844 0.65629 0.2067 0.39274 0.2067 0.96635z"/>
  <path d="m28.822 1.1802v2.1704h3.3124v-2.1704q0-0.46509 0.2067-0.69763 0.21187-0.23254 0.55294-0.23254 0.34623 0 0.5581 0.23254 0.21704 0.22738 0.21704 0.69763v5.9686q0 0.47025-0.21704 0.7028t-0.5581 0.23254q-0.34623 0-0.55294-0.23254-0.2067-0.23771-0.2067-0.7028v-2.5476h-3.3124v2.5476q0 0.47025-0.21704 0.7028t-0.5581 0.23254q-0.34623 0-0.55294-0.23254-0.2067-0.23771-0.2067-0.7028v-5.9686q0-0.46509 0.20154-0.69763 0.2067-0.23254 0.5581-0.23254 0.34623 0 0.5581 0.23254 0.21704 0.22738 0.21704 0.69763z"/>
  <path d="m35.38 7.1488v-5.9686q0-0.46509 0.21187-0.69763 0.21187-0.23254 0.54777-0.23254 0.34623 0 0.5581 0.23254 0.21704 0.22738 0.21704 0.69763v5.9686q0 0.47025-0.21704 0.7028-0.21187 0.23254-0.5581 0.23254-0.33073 0-0.54777-0.23254-0.21187-0.23771-0.21187-0.7028z"/>
  <path d="m40.63 1.1698 2.9507 4.4648v-4.5062q0-0.43925 0.18603-0.65629 0.1912-0.22221 0.5116-0.22221 0.33073 0 0.52193 0.22221 0.1912 0.21704 0.1912 0.65629v5.9583q0 0.99735-0.82682 0.99735-0.20671 0-0.37207-0.062012-0.16536-0.056843-0.31006-0.18603-0.14469-0.12919-0.26872-0.29972-0.12402-0.1757-0.24805-0.35657l-2.8784-4.4132v4.439q0 0.43408-0.20154 0.65629-0.20154 0.22221-0.51676 0.22221-0.32556 0-0.52193-0.22221-0.19637-0.22738-0.19637-0.65629v-5.8446q0-0.37207 0.08268-0.58394 0.09819-0.23254 0.32556-0.37724 0.22738-0.14986 0.49092-0.14986 0.2067 0 0.3514 0.067179 0.14986 0.067179 0.25838 0.18087 0.11369 0.11369 0.22738 0.29455 0.11886 0.18087 0.24288 0.37724z"/>
  <path d="m47.622 0.37919h1.9999q0.78031 0 1.3384 0.14469 0.5581 0.14469 1.0129 0.5426 1.1834 1.0129 1.1834 3.0799 0 0.68213-0.11886 1.2454-0.11886 0.56327-0.3669 1.018-0.24805 0.44958-0.63562 0.80615-0.30489 0.27388-0.66662 0.43925-0.36173 0.16536-0.78031 0.23254-0.41341 0.067179-0.93534 0.067179h-1.9999q-0.41858 0-0.63045-0.12402-0.21187-0.12919-0.27905-0.35657-0.062012-0.23254-0.062012-0.59944v-5.5552q0-0.49609 0.22221-0.7183 0.22221-0.22221 0.7183-0.22221zm0.59428 1.2144v5.1418h1.1627q0.3824 0 0.59944-0.020671 0.21704-0.02067 0.44958-0.10335 0.23254-0.082682 0.40308-0.23254 0.76998-0.65112 0.76998-2.2428 0-1.1214-0.34106-1.6795-0.3359-0.5581-0.83199-0.70796-0.49609-0.15503-1.1989-0.15503z"/>
  <path d="m59.497 1.5626h-3.4571v1.8603h3.1833q0.3514 0 0.52193 0.1602 0.1757 0.15503 0.1757 0.41341 0 0.25838-0.17053 0.42375-0.17053 0.1602-0.5271 0.1602h-3.1833v2.1549h3.576q0.36173 0 0.5426 0.17053 0.18603 0.16536 0.18603 0.44442 0 0.26872-0.18603 0.43925-0.18087 0.16536-0.5426 0.16536h-4.1703q-0.50126 0-0.72347-0.22221-0.21704-0.22221-0.21704-0.7183v-5.6947q0-0.33073 0.09819-0.53743 0.09819-0.21187 0.30489-0.30489 0.21187-0.098185 0.53743-0.098185h4.0514q0.3669 0 0.5426 0.16536 0.18087 0.1602 0.18087 0.42375 0 0.26872-0.18087 0.43408-0.1757 0.1602-0.5426 0.1602z"/>
  <path d="m63.626 4.7148h-0.53743v2.434q0 0.48059-0.21187 0.70796t-0.55294 0.22738q-0.3669 0-0.56844-0.23771-0.20154-0.23771-0.20154-0.69763v-5.8291q0-0.49609 0.22221-0.7183 0.22221-0.22221 0.7183-0.22221h2.496q0.51676 0 0.88366 0.046509 0.3669 0.041341 0.66146 0.1757 0.35657 0.14986 0.63045 0.42891 0.27388 0.27905 0.41341 0.65112 0.14469 0.3669 0.14469 0.78031 0 0.84749-0.48059 1.3539-0.47542 0.50643-1.4469 0.7183 0.40824 0.21704 0.78031 0.64079t0.66146 0.90433q0.29456 0.47542 0.45475 0.86299 0.16536 0.3824 0.16536 0.5271 0 0.14986-0.09819 0.29972-0.09302 0.14469-0.25838 0.22738-0.16536 0.08785-0.3824 0.08785-0.25838 0-0.43408-0.12402-0.1757-0.11886-0.30489-0.30489-0.12402-0.18603-0.34106-0.54777l-0.61495-1.0232q-0.33073-0.56327-0.59428-0.85783-0.25838-0.29455-0.5271-0.40307t-0.67696-0.10852zm0.8785-3.1833h-1.4159v2.0826h1.3746q0.55294 0 0.93017-0.093017 0.37724-0.098185 0.57361-0.32556 0.20154-0.23254 0.20154-0.63562 0-0.31523-0.1602-0.55294-0.1602-0.24288-0.44442-0.36173-0.26872-0.11369-1.0594-0.11369z"/>
  <path d="m71.734 6.8129-1.2144-4.8266v5.2296q0 0.43408-0.19637 0.65112-0.1912 0.21704-0.5116 0.21704-0.31006 0-0.50643-0.21187-0.19637-0.21704-0.19637-0.65629v-5.9944q0-0.49609 0.25838-0.66662 0.25838-0.1757 0.69763-0.1757h0.47542q0.42891 0 0.62012 0.077514 0.19637 0.077514 0.28939 0.27905 0.09302 0.20154 0.21187 0.65629l1.1007 4.1496 1.1007-4.1496q0.11886-0.45475 0.21187-0.65629 0.09302-0.20154 0.28422-0.27905 0.19637-0.077514 0.62528-0.077514h0.47542q0.43925 0 0.69763 0.1757 0.25838 0.17053 0.25838 0.66662v5.9944q0 0.43408-0.19637 0.65112-0.1912 0.21704-0.51676 0.21704-0.30489 0-0.50126-0.21704-0.19637-0.21704-0.19637-0.65112v-5.2296l-1.2144 4.8266q-0.11886 0.47025-0.19637 0.69246-0.07235 0.21704-0.27388 0.39791-0.20154 0.18087-0.5581 0.18087-0.26872 0-0.45475-0.11886-0.18603-0.11369-0.28939-0.29455-0.10335-0.18087-0.16536-0.39791-0.056844-0.22221-0.11886-0.45992z"/>
  <path d="m82.839 7.0971-0.36173-0.95084h-3.0799l-0.36173 0.97151q-0.21187 0.56844-0.36173 0.76998-0.14986 0.19637-0.49092 0.19637-0.28939 0-0.5116-0.21187t-0.22221-0.48059q0-0.15503 0.05168-0.32039 0.05168-0.16536 0.17053-0.45992l1.9379-4.9196q0.08268-0.21187 0.19637-0.50643 0.11886-0.29972 0.24805-0.49609 0.13436-0.19637 0.34623-0.31523 0.21704-0.12402 0.53227-0.12402 0.32039 0 0.53226 0.12402 0.21704 0.11886 0.34623 0.31006 0.13436 0.1912 0.22221 0.41341 0.09302 0.21704 0.23254 0.58394l1.9792 4.8886q0.23254 0.5581 0.23254 0.81132 0 0.26355-0.22221 0.48576-0.21704 0.21704-0.5271 0.21704-0.18087 0-0.31006-0.067179-0.1292-0.062012-0.21704-0.17053-0.08785-0.11369-0.1912-0.34106-0.098185-0.23254-0.17053-0.40824zm-3.0386-2.1032h2.2634l-1.142-3.1264z"/>
  <path d="m87.604 1.1698 2.9507 4.4648v-4.5062q0-0.43925 0.18604-0.65629 0.1912-0.22221 0.5116-0.22221 0.33073 0 0.52193 0.22221 0.1912 0.21704 0.1912 0.65629v5.9583q0 0.99735-0.82682 0.99735-0.2067 0-0.37207-0.062012-0.16536-0.056843-0.31006-0.18603-0.14469-0.12919-0.26872-0.29972-0.12402-0.1757-0.24805-0.35657l-2.8784-4.4132v4.439q0 0.43408-0.20154 0.65629-0.20154 0.22221-0.51676 0.22221-0.32556 0-0.52193-0.22221-0.19637-0.22738-0.19637-0.65629v-5.8446q0-0.37207 0.08268-0.58394 0.09819-0.23254 0.32556-0.37724 0.22738-0.14986 0.49092-0.14986 0.2067 0 0.3514 0.067179 0.14986 0.067179 0.25838 0.18087 0.11369 0.11369 0.22738 0.29455 0.11886 0.18087 0.24288 0.37724z"/>
  <path d="m95.644 1.1698 2.9507 4.4648v-4.5062q0-0.43925 0.18604-0.65629 0.1912-0.22221 0.5116-0.22221 0.33073 0 0.52193 0.22221 0.1912 0.21704 0.1912 0.65629v5.9583q0 0.99735-0.82682 0.99735-0.2067 0-0.37207-0.062012-0.16536-0.056843-0.31006-0.18603-0.14469-0.12919-0.26872-0.29972-0.12402-0.1757-0.24805-0.35657l-2.8784-4.4132v4.439q0 0.43408-0.20154 0.65629-0.20154 0.22221-0.51676 0.22221-0.32556 0-0.52193-0.22221-0.19637-0.22738-0.19637-0.65629v-5.8446q0-0.37207 0.08268-0.58394 0.09819-0.23254 0.32556-0.37724 0.22738-0.14986 0.49092-0.14986 0.2067 0 0.3514 0.067179 0.14986 0.067179 0.25838 0.18087 0.11369 0.11369 0.22738 0.29455 0.11886 0.18087 0.24288 0.37724z"/>
 </g>
</svg>
